# xmcd CD database file
#
# Track frame offsets:
#	150
#	15912
#	37917
#	57212
#
# Disc length: 965 seconds
#
# Revision: 3
# Processed by: cddbd v1.4PL0 Copyright (c) Steve Scherf et al.
# Submitted via: CDex 1.40Release
#
DISCID=2003c304
DTITLE=พราว - EP
DYEAR=1996
DGENRE=Indie
TTITLE0=เธอคือความฝัน (music box version)
TTITLE1=ละคร(backstage version)
TTITLE2=where(o version)
TTITLE3=เปิดใจ (Acoustic Version)
EXTD=YEAR: 1996
EXTT0=
EXTT1=
EXTT2=
EXTT3=
PLAYORDER=
